<svg
    width="220"
    height="26"
    viewBox="0 0 220 26"
    fill="none"
    xmlns="http://www.w3.org/2000/svg">
    <path
        d="M13.553 13.3206H15.558C18.9637 13.3206 20.1722 14.8708 20.1722 17.8278C20.1722 20.9282 19.0186 22.622 15.8601 22.622H14.9537C13.91 22.622 13.553 22.4498 13.553 21.3014V13.3206ZM13.553 3.84689H15.3932C18.0299 3.84689 19.2658 5.19617 19.2658 7.86603C19.2658 10.8517 18.0848 12.4019 15.6129 12.4019H13.553V3.84689ZM6 2.8134V3.27273C8.38949 3.61722 8.71908 4.04785 8.71908 7.00478V19.4354C8.71908 22.3923 8.38949 22.823 6 23.1675V23.6268H10.8339C12.3445 23.6268 14.4594 23.6842 15.7777 23.6842C21.9299 23.6842 25.473 21.8469 25.473 17.7703C25.473 14.4689 22.6166 12.9187 19.8151 12.4593V12.4019C22.2046 11.7129 24.1272 9.70335 24.1272 7.17703C24.1272 4.13397 21.9299 2.66986 15.7502 2.75598C13.6903 2.78469 11.548 2.8134 10.2022 2.8134H6Z"
        fill="black"
    />
    <path
        d="M34.1237 7.92344C29.537 7.92344 26.4884 11.7129 26.4884 15.7608C26.4884 20.6699 29.6469 24 34.1237 24C38.7379 24 41.8141 20.2967 41.8141 15.9617C41.8141 11.1962 38.4633 7.92344 34.1237 7.92344ZM33.8766 8.92823C36.6231 8.92823 37.1175 14.0096 37.1175 16.823C37.1175 19.866 36.6506 22.9952 34.4808 22.9952C31.7068 22.9952 31.1849 17.9139 31.1849 14.9282C31.1849 11.7129 31.7342 8.92823 33.8766 8.92823Z"
        fill="black"
    />
    <path
        d="M49.9164 7.92344C45.3296 7.92344 42.281 11.7129 42.281 15.7608C42.281 20.6699 45.4395 24 49.9164 24C54.5306 24 57.6067 20.2967 57.6067 15.9617C57.6067 11.1962 54.2559 7.92344 49.9164 7.92344ZM49.6692 8.92823C52.4157 8.92823 52.9101 14.0096 52.9101 16.823C52.9101 19.866 52.4432 22.9952 50.2734 22.9952C47.4994 22.9952 46.9776 17.9139 46.9776 14.9282C46.9776 11.7129 47.5269 8.92823 49.6692 8.92823Z"
        fill="black"
    />
    <path
        d="M59.5567 5.36842V19.7225C59.5567 22.5933 59.5293 22.9091 57.6891 23.1675V23.6268H65.7639V23.1675C64.0336 22.9091 64.0061 22.5933 64.0061 19.7225V6.43062C64.0061 3.55981 64.0885 1.49282 64.116 0L57.6891 2.03828V2.49761C59.5018 2.58373 59.5567 2.8421 59.5567 5.36842ZM67.1921 23.6268H76.0635V23.1675C74.855 22.9952 74.3606 22.7081 73.5092 21.5598L67.659 13.5789L70.3781 11.0813C72.081 9.50239 72.7951 8.75598 74.6627 8.64115V8.18182H68.7302V8.64115C71.0922 8.8421 70.5704 9.61722 68.9774 11.11L64.0336 15.7033L68.0985 21.2153C69.0872 22.5646 68.84 22.9665 67.1921 23.1675V23.6268Z"
        fill="black"
    />
    <path
        d="M87.2322 13.5215H88.1111C88.9626 14.7847 89.814 16.0478 91.0499 18.1148L91.7366 19.2632C92.8352 21.1579 93.5218 22.3349 94.1535 23.6268H101.432V23.1675C99.6741 22.8804 99.2621 22.5646 97.9987 20.555L93.357 13.1196C96.4057 12.488 98.3557 11.0239 98.3557 8.15311C98.3557 4.01914 94.2908 2.78469 88.633 2.78469C88.4407 2.78469 84.3758 2.8134 84.1012 2.8134H79.6792V3.27273C82.0687 3.61722 82.3983 4.04785 82.3983 7.00478V19.4354C82.3983 22.3923 82.0687 22.823 79.6792 23.1675V23.6268H90.3358V23.1675C87.5618 22.823 87.2322 22.3923 87.2322 19.4354V13.5215ZM87.2322 12.5455V3.76076H88.2485C91.0499 3.76076 93 4.99521 93 8.15311C93 11.311 91.0499 12.5455 88.2485 12.5455H87.2322Z"
        fill="black"
    />
    <path
        d="M106.738 24C110.007 24 112.204 21.445 113.275 19.4641L112.945 19.177C112.067 20.1244 110.446 20.6699 109.045 20.6699C106.052 20.6699 103.772 18.5455 103.772 14.756C103.772 14.5263 103.799 14.2966 103.799 14.067H113.44C113.303 10.1914 110.831 7.92344 107.205 7.92344C103.25 7.92344 99.9268 11.6268 99.9268 16.4785C99.9268 20.7273 102.426 24 106.738 24ZM106.766 9.12919C108.386 9.12919 109.265 10.6794 109.32 12.9187H103.854C104.047 10.5933 105.063 9.12919 106.766 9.12919Z"
        fill="black"
    />
    <path
        d="M122.704 21.2727C122.951 23.0813 124.159 23.9426 125.587 23.9426C127.29 23.9426 128.526 22.7656 129.24 21.7321L128.911 21.3589C128.526 21.6746 128.197 21.8469 127.757 21.8469C126.933 21.8469 126.796 20.7847 126.823 19.7799L126.961 13.2057C127.043 9.24402 124.818 7.89474 121.358 7.89474C117.375 7.89474 114.546 10.9091 114.629 13.2919H118.309C118.199 10.8804 118.666 9.12919 120.589 9.12919C122.127 9.12919 122.731 10.0766 122.731 13.1196V13.9522C120.726 14.8134 119.518 15.3876 118.776 15.7608C115.727 17.2823 114.327 18.3445 114.327 20.067C114.327 22.1053 116.222 24 118.501 24C120.479 24 121.632 22.8517 122.704 21.2727ZM122.594 20.555C121.99 21.2727 121.413 21.5311 120.726 21.5311C119.27 21.5311 118.419 20.2105 118.419 18.7751C118.419 17.9139 118.831 17.11 119.902 16.4211C120.397 16.1053 121.083 15.7033 122.676 15.1005L122.594 20.555Z"
        fill="black"
    />
    <path
        d="M136.596 8.95694C137.612 8.95694 138.573 9.58852 138.985 10.4498V20.3254C138.628 20.8134 138.024 21.0144 137.255 21.0144C134.948 21.0144 133.602 17.6842 133.602 14.3254C133.602 10.6794 134.838 8.95694 136.596 8.95694ZM138.985 5.36842V8.95694C138.436 8.35407 137.227 7.92344 136.211 7.92344C132.503 7.92344 129.125 11.2823 129.125 16.5646C129.125 20.4402 131.322 24 134.7 24C136.925 24 138.518 22.2775 139.122 21.0144L139.507 23.8852L145.302 21.7895V21.3301C143.489 21.244 143.434 20.9856 143.434 18.4593V6.43062C143.434 3.55981 143.517 1.49282 143.544 0L136.925 2.09569V2.55502C138.958 2.64115 138.985 2.8421 138.985 5.36842Z"
        fill="black"
    />
    <path
        d="M152.265 24C155.534 24 157.731 21.445 158.802 19.4641L158.473 19.177C157.594 20.1244 155.973 20.6699 154.573 20.6699C151.579 20.6699 149.299 18.5455 149.299 14.756C149.299 14.5263 149.327 14.2966 149.327 14.067H158.967C158.83 10.1914 156.358 7.92344 152.732 7.92344C148.777 7.92344 145.454 11.6268 145.454 16.4785C145.454 20.7273 147.953 24 152.265 24ZM152.293 9.12919C153.913 9.12919 154.792 10.6794 154.847 12.9187H149.382C149.574 10.5933 150.59 9.12919 152.293 9.12919Z"
        fill="black"
    />
    <path
        d="M165.601 12.0574C166.095 11.3397 166.699 10.9091 167.056 10.9091C167.276 10.9091 167.386 10.9378 167.77 11.4833L168.567 12.6029C168.979 13.177 169.144 13.2919 169.803 13.2919C170.901 13.2919 172 12.2584 172 10.5359C172 8.95694 170.984 8.00957 169.528 8.00957C167.798 8.00957 166.534 9.84689 165.518 11.2249L165.436 7.95215L159.283 9.96172V10.4211C161.096 10.5072 161.151 10.7655 161.151 13.2919V19.7225C161.151 22.5933 161.124 22.9091 159.283 23.1675V23.6268H167.853V23.1675C165.738 22.9091 165.601 22.5933 165.601 19.7225V12.0574Z"
        fill="black"
    />
</svg>
