<svg width="28" height="28" viewBox="0 0 28 28" fill="none" xmlns="http://www.w3.org/2000/svg">
<path d="M0 14C0 6.26801 6.26801 0 14 0C21.732 0 28 6.26801 28 14C28 21.732 21.732 28 14 28C6.26801 28 0 21.732 0 14Z" fill="black"/>
<path d="M15.4935 6.08915C10.8661 6.96702 12.4974 12.36 13.1022 14.3906C13.5031 15.653 14.9543 20.8601 12.9366 21.3713C11.6351 21.6914 11.5145 20.4493 10.5239 21.0589C9.68295 21.5851 11.4023 22.2491 12.4882 22.0431C17.1444 21.178 15.5128 15.7852 14.908 13.7546C14.5071 12.4922 13.0558 7.28508 15.0736 6.77394C16.375 6.45375 16.4957 7.69591 17.4863 7.08632C18.2986 6.54709 16.6032 5.87863 15.4935 6.08915Z" fill="white"/>
</svg>
