<svg width="17" height="16" viewBox="0 0 17 16" fill="none" xmlns="http://www.w3.org/2000/svg">
<path fill-rule="evenodd" clip-rule="evenodd" d="M12.9873 12.7686C12.9196 12.768 12.8502 12.7841 12.7855 12.8143C12.7121 12.8436 12.6379 12.8772 12.5682 12.9068L12.4646 12.9497L12.33 13.0031V13.0048C10.8715 13.5963 9.33959 13.9429 7.92199 13.9734C7.87006 13.9751 7.81785 13.9751 7.76649 13.9751C5.5375 13.9762 3.71858 12.9421 1.88273 11.9233C1.81838 11.8897 1.75375 11.8719 1.68912 11.8719C1.60615 11.8719 1.52177 11.9027 1.46024 11.9606C1.39844 12.0184 1.36175 12.1028 1.36231 12.1883C1.36203 12.2998 1.42214 12.4017 1.5054 12.4677C3.22808 13.9632 5.11586 15.3529 7.65445 15.354C7.70412 15.354 7.75435 15.3529 7.80543 15.3517C9.42003 15.3153 11.2471 14.7701 12.6644 13.8794L12.6726 13.8737C12.8583 13.7628 13.044 13.6367 13.219 13.4967C13.3282 13.4157 13.403 13.2901 13.4019 13.1589C13.3985 12.9263 13.2007 12.7686 12.9873 12.7686Z" fill="white"/>
<path fill-rule="evenodd" clip-rule="evenodd" d="M14.9542 11.9428V11.9422C14.9485 11.8 14.9183 11.6924 14.8593 11.6027L14.8534 11.5945L14.8464 11.5858C14.7862 11.5203 14.729 11.4955 14.666 11.4678C14.4803 11.3961 14.2097 11.358 13.8834 11.3569C13.6492 11.3569 13.3901 11.3789 13.131 11.4356L13.1305 11.4184L12.8686 11.5056L12.864 11.5079L12.7164 11.5559V11.5623C12.5434 11.634 12.3857 11.7238 12.2392 11.8296C12.1489 11.8979 12.0727 11.9879 12.0685 12.1262C12.0662 12.2013 12.1043 12.2877 12.1684 12.339C12.2313 12.3904 12.305 12.4073 12.3696 12.4073C12.3851 12.4073 12.3992 12.4068 12.4119 12.4045L12.4246 12.4034L12.4345 12.4017C12.5623 12.3746 12.7486 12.3565 12.9665 12.3255C13.1533 12.3052 13.3517 12.2896 13.5239 12.2896C13.6458 12.2891 13.7547 12.2973 13.8298 12.3139C13.8673 12.3215 13.8953 12.3314 13.9114 12.3393C13.9164 12.3416 13.9201 12.3438 13.9224 12.3452C13.9258 12.3557 13.9306 12.3822 13.93 12.4203C13.9317 12.5642 13.8699 12.8309 13.7866 13.0911C13.7051 13.3519 13.6057 13.6133 13.5397 13.7868C13.5242 13.8272 13.5143 13.8706 13.5143 13.9186C13.5131 13.9886 13.5414 14.073 13.602 14.1292C13.661 14.1853 13.7372 14.2073 13.8016 14.2073H13.8044C13.9009 14.2062 13.9825 14.1681 14.053 14.1131C14.7168 13.5162 14.9471 12.5642 14.9564 12.0277L14.9542 11.9428Z" fill="white"/>
<path fill-rule="evenodd" clip-rule="evenodd" d="M8.88706 5.54763C8.49675 5.57698 8.04689 5.60662 7.59675 5.66617C6.90728 5.75704 6.21696 5.87614 5.64744 6.14679C4.53774 6.59665 3.7876 7.55649 3.7876 8.9659C3.7876 10.7363 4.92721 11.636 6.36739 11.636C6.84688 11.636 7.23776 11.5753 7.59646 11.4861C8.16683 11.3058 8.64661 10.9762 9.21698 10.3753C9.54661 10.8257 9.63693 11.0363 10.2064 11.5158C10.3563 11.5753 10.5062 11.5753 10.6258 11.4861C10.9862 11.1859 11.6164 10.6454 11.9461 10.3463C12.0965 10.226 12.0663 10.046 11.9757 9.89695C11.6466 9.47644 11.3159 9.11633 11.3159 8.30607V5.60662C11.3159 4.46672 11.4062 3.41658 10.5663 2.63765C9.87681 2.00829 8.79675 1.76784 7.95686 1.76784H7.59646C6.06738 1.85646 4.44715 2.51685 4.08732 4.40718C4.0272 4.64763 4.20754 4.73681 4.32777 4.76644L6.00699 4.97642C6.18789 4.94678 6.27708 4.79608 6.30727 4.64735C6.45713 3.98695 6.99674 3.65675 7.59646 3.59663H7.71725C8.07709 3.59663 8.46684 3.74706 8.67681 4.04706C8.9167 4.40689 8.88678 4.88724 8.88678 5.30718V5.54763H8.88706ZM8.55743 9.11633C8.34746 9.53515 7.98706 9.80523 7.59675 9.89695C7.5372 9.89695 7.44745 9.92659 7.35686 9.92659C6.69759 9.92659 6.30727 9.41605 6.30727 8.66647C6.30727 7.70635 6.87736 7.25649 7.59646 7.04651C7.98677 6.95677 8.43664 6.92629 8.88678 6.92629V7.28668C8.88706 7.97643 8.9167 8.51604 8.55743 9.11633Z" fill="white"/>
</svg>
