<svg width="28" height="28" viewBox="0 0 28 28" fill="none" xmlns="http://www.w3.org/2000/svg">
<path d="M0 14C0 6.26801 6.26801 0 14 0C21.732 0 28 6.26801 28 14C28 21.732 21.732 28 14 28C6.26801 28 0 21.732 0 14Z" fill="#CEA362"/>
<path fill-rule="evenodd" clip-rule="evenodd" d="M8.00004 12.2006L8 9.50883L14 7L20 9.50883V12.2006L14 9.68101L8.00004 12.2006ZM8 13.7382L8.00004 16.43L14 13.9104L20 16.43V13.7382L14 11.2294L8 13.7382ZM8 17.9672L8.00004 20.659L14 18.1394L20 20.659V17.9672L14 15.4584L8 17.9672Z" fill="white"/>
</svg>
