<svg width="28" height="28" viewBox="0 0 28 28" fill="none" xmlns="http://www.w3.org/2000/svg">
<path d="M0 14C0 6.26801 6.26801 0 14 0C21.732 0 28 6.26801 28 14C28 21.732 21.732 28 14 28C6.26801 28 0 21.732 0 14Z" fill="#000000"/>
<path d="M10.5001 7.33337C9.85458 7.33337 9.33184 7.85761 9.3335 8.50302L9.3335 8.50398L9.3335 20.1667C9.3335 20.3589 9.44368 20.5341 9.61691 20.6174C9.79014 20.7006 9.99577 20.6772 10.1459 20.5571L14.0002 17.4737L17.8545 20.5571C18.0046 20.6772 18.2102 20.7006 18.3834 20.6174C18.5567 20.5341 18.6668 20.3589 18.6668 20.1667V8.50004C18.6668 7.85571 18.1445 7.33337 17.5002 7.33337H10.5001Z" fill="white"/>
</svg>
