<svg width="16" height="16" viewBox="0 0 16 16" fill="none" xmlns="http://www.w3.org/2000/svg">
<path d="M16 6.545V7.895L8 12.895L0 7.8975V6.5475L8 11.5475L16 6.545ZM11.1375 8.345L12.315 7.61C11.385 6.215 9.7975 5.295 7.9975 5.295C6.1975 5.295 4.61 6.2125 3.6825 7.605H3.69C3.7525 7.5475 3.8175 7.4925 3.8825 7.4375C6.125 5.5775 9.3675 5.985 11.1375 8.345ZM5.635 8.815C6.0575 8.5175 6.5475 8.3475 7.07 8.3475C7.93 8.3475 8.7 8.8075 9.23 9.5375L10.365 8.8275C9.8425 8.08 8.975 7.59 7.995 7.59C7.0225 7.59 6.16 8.075 5.635 8.815ZM2.59 5.575C5.885 2.9675 10.545 3.665 13.0275 7.1275L13.045 7.1525L14.265 6.3925C12.9275 4.35 10.62 3 7.9975 3C5.41 3 3.0825 4.3375 1.735 6.39C1.9825 6.1275 2.3025 5.8025 2.59 5.575Z" fill="black"/>
</svg>
