<svg width="16" height="16" viewBox="0 0 16 16" fill="none" xmlns="http://www.w3.org/2000/svg">
<path fill-rule="evenodd" clip-rule="evenodd" d="M13.7801 4.22001C13.9205 4.36063 13.9994 4.55126 13.9994 4.75001C13.9994 4.94876 13.9205 5.13938 13.7801 5.28001L6.5301 12.53C6.38947 12.6704 6.19884 12.7493 6.0001 12.7493C5.80135 12.7493 5.61071 12.6704 5.47009 12.53L2.2201 9.28001C2.08762 9.13783 2.0155 8.94979 2.01892 8.75548C2.02235 8.56118 2.10106 8.3758 2.23848 8.23838C2.37589 8.10097 2.56128 8.02226 2.75558 8.01883C2.94988 8.0154 3.13792 8.08753 3.2801 8.22001L6.0001 10.94L12.7201 4.22001C12.8607 4.07956 13.0513 4.00067 13.2501 4.00067C13.4488 4.00067 13.6395 4.07956 13.7801 4.22001Z" fill="#3C864E"/>
</svg>
