<svg width="24" height="24" viewBox="0 0 24 24" fill="none" xmlns="http://www.w3.org/2000/svg">
<g clip-path="url(#clip0_277_27398)">
<rect width="24" height="24" fill="white"/>
<path d="M3.8267 19H1.49716L6.73153 4.45455H9.26705L14.5014 19H12.1719L8.05966 7.09659H7.94602L3.8267 19ZM4.21733 13.304H11.7741V15.1506H4.21733V13.304Z" fill="black"/>
<path fill-rule="evenodd" clip-rule="evenodd" d="M22.3977 11.8352C22.6174 11.6156 22.6174 11.2594 22.3977 11.0398L19.2102 7.85225C18.9906 7.63258 18.6344 7.63258 18.4148 7.85225L15.2273 11.0397C15.0076 11.2594 15.0076 11.6156 15.2273 11.8352C15.447 12.0549 15.8031 12.0549 16.0227 11.8352L18.25 9.60799L18.25 15.1875C18.25 15.4981 18.5018 15.75 18.8125 15.75C19.1232 15.75 19.375 15.4981 19.375 15.1875L19.375 9.60799L21.6023 11.8352C21.8219 12.0549 22.1781 12.0549 22.3977 11.8352Z" fill="black"/>
</g>
<defs>
<clipPath id="clip0_277_27398">
<rect width="24" height="24" fill="white"/>
</clipPath>
</defs>
</svg>
