<svg width="24" height="24" viewBox="0 0 24 24" fill="none" xmlns="http://www.w3.org/2000/svg">
<rect width="24" height="24" fill="white"/>
<path d="M3.97869 17H2.34801L6.01207 6.81818H7.78693L11.451 17H9.82031L6.94176 8.66761H6.86222L3.97869 17ZM4.25213 13.0128H9.5419V14.3054H4.25213V13.0128Z" fill="currentColor"/>
<path fill-rule="evenodd" clip-rule="evenodd" d="M13.6023 12.1648C13.3826 12.3844 13.3826 12.7406 13.6023 12.9602L16.7898 16.1477C17.0094 16.3674 17.3656 16.3674 17.5852 16.1477L20.7727 12.9602C20.9924 12.7406 20.9924 12.3844 20.7727 12.1648C20.553 11.9451 20.1969 11.9451 19.9773 12.1648L17.75 14.392V8.8125C17.75 8.50185 17.4982 8.25 17.1875 8.25C16.8768 8.25 16.625 8.50185 16.625 8.8125V14.392L14.3977 12.1648C14.1781 11.9451 13.8219 11.9451 13.6023 12.1648Z" fill="currentColor"/>
</svg>
