<svg width="28" height="28" viewBox="0 0 28 28" fill="none" xmlns="http://www.w3.org/2000/svg">
<path d="M0 14C0 6.26801 6.26801 0 14 0C21.732 0 28 6.26801 28 14C28 21.732 21.732 28 14 28C6.26801 28 0 21.732 0 14Z" fill="black"/>
<path fill-rule="evenodd" clip-rule="evenodd" d="M14.0002 6.5C9.76433 6.5 6.3335 9.93083 6.3335 14.1667C6.3335 17.5592 8.52808 20.4246 11.5756 21.4404C11.9589 21.5075 12.1027 21.2775 12.1027 21.0763C12.1027 20.8942 12.0931 20.2904 12.0931 19.6483C10.1668 20.0029 9.6685 19.1787 9.51516 18.7475C9.42891 18.5271 9.05516 17.8467 8.72933 17.6646C8.461 17.5208 8.07766 17.1662 8.71975 17.1567C9.3235 17.1471 9.75475 17.7125 9.8985 17.9425C10.5885 19.1021 11.6906 18.7762 12.1314 18.575C12.1985 18.0767 12.3997 17.7412 12.6202 17.5496C10.9143 17.3579 9.13183 16.6967 9.13183 13.7642C9.13183 12.9304 9.42891 12.2404 9.91766 11.7037C9.841 11.5121 9.57266 10.7262 9.99433 9.67208C9.99433 9.67208 10.6364 9.47083 12.1027 10.4579C12.716 10.2854 13.3677 10.1992 14.0193 10.1992C14.671 10.1992 15.3227 10.2854 15.936 10.4579C17.4022 9.46125 18.0443 9.67208 18.0443 9.67208C18.466 10.7262 18.1977 11.5121 18.121 11.7037C18.6097 12.2404 18.9068 12.9208 18.9068 13.7642C18.9068 16.7062 17.1147 17.3579 15.4089 17.5496C15.6868 17.7892 15.9264 18.2492 15.9264 18.9679C15.9264 19.9933 15.9168 20.8175 15.9168 21.0763C15.9168 21.2775 16.0606 21.5171 16.4439 21.4404C19.4722 20.4246 21.6668 17.5496 21.6668 14.1667C21.6668 9.93083 18.236 6.5 14.0002 6.5Z" fill="white"/>
</svg>
