<svg width="16" height="16" viewBox="0 0 16 16" fill="none" xmlns="http://www.w3.org/2000/svg">
<path fill-rule="evenodd" clip-rule="evenodd" d="M7.82322 0.176739L4.92677 3.07319C4.76928 3.23068 4.88083 3.49996 5.10355 3.49996H7.25001C7.25001 3.49997 7.25001 3.49997 7.25001 3.49997V9.24995C7.25001 9.66416 7.5858 9.99995 8.00001 9.99995C8.41423 9.99995 8.75001 9.66416 8.75001 9.24995V3.49997C8.75001 3.49997 8.75001 3.49997 8.75001 3.49996H10.8964C11.1192 3.49996 11.2307 3.23068 11.0732 3.07319L8.17677 0.176738C8.07914 0.0791077 7.92085 0.079108 7.82322 0.176739ZM3.75002 6.50002C3.61195 6.50002 3.50002 6.61194 3.50002 6.75002V13.25C3.50002 13.3881 3.61195 13.5 3.75002 13.5H12.25C12.3881 13.5 12.5 13.3881 12.5 13.25V6.75002C12.5 6.61194 12.3881 6.50002 12.25 6.50002H11.25C10.8358 6.50002 10.5 6.16423 10.5 5.75002C10.5 5.3358 10.8358 5.00002 11.25 5.00002H12.25C13.2165 5.00002 14 5.78352 14 6.75002V13.25C14 14.2165 13.2165 15 12.25 15H3.75002C2.78352 15 2.00002 14.2165 2.00002 13.25V6.75002C2.00002 5.78352 2.78352 5.00002 3.75002 5.00002H4.75002C5.16424 5.00002 5.50002 5.3358 5.50002 5.75002C5.50002 6.16423 5.16424 6.50002 4.75002 6.50002H3.75002Z" fill="#24292E"/>
</svg>
