<svg width="28" height="28" viewBox="0 0 28 28" fill="none" xmlns="http://www.w3.org/2000/svg">
<path d="M0 14C0 6.26801 6.26801 0 14 0C21.732 0 28 6.26801 28 14C28 21.732 21.732 28 14 28C6.26801 28 0 21.732 0 14Z" fill="#000000"/>
<g clip-path="url(#clip0_548_3612)">
<path d="M22 9.03799C21.4113 9.29932 20.7787 9.47532 20.1147 9.55466C20.7927 9.14866 21.3133 8.50532 21.558 7.73866C20.924 8.11466 20.2213 8.38799 19.4733 8.53532C18.8753 7.89732 18.0213 7.49866 17.0773 7.49866C14.958 7.49866 13.4007 9.47599 13.8793 11.5287C11.152 11.392 8.73333 10.0853 7.114 8.09932C6.254 9.57466 6.668 11.5047 8.12933 12.482C7.592 12.4647 7.08533 12.3173 6.64333 12.0713C6.60733 13.592 7.69733 15.0147 9.276 15.3313C8.814 15.4567 8.308 15.486 7.79333 15.3873C8.21067 16.6913 9.42267 17.64 10.86 17.6667C9.48 18.7487 7.74133 19.232 6 19.0267C7.45267 19.958 9.17867 20.5013 11.032 20.5013C17.1267 20.5013 20.57 15.354 20.362 10.7373C21.0033 10.274 21.56 9.69599 22 9.03799Z" fill="white"/>
</g>
<defs>
<clipPath id="clip0_548_3612">
<rect width="16" height="16" fill="white" transform="translate(6 6)"/>
</clipPath>
</defs>
</svg>
